<svg version="1.1" id="Layer_1" xmlns="http://www.w3.org/2000/svg"
    xmlns:xlink="http://www.w3.org/1999/xlink" x="0px" y="0px"
    width="100%" viewBox="0 0 340 307" enable-background="new 0 0 340 307" xml:space="preserve">
<path fill="#000000" opacity="1.000000" stroke="none" 
	d="
M2.999999,308.000000 
	C2.333334,307.667084 1.216302,307.452850 1.090958,306.977264 
	C0.803575,305.886841 1.000000,304.668915 1.000000,303.502747 
	C1.000000,202.711792 1.000000,101.920853 1.000000,1.064950 
	C114.242355,1.064950 227.484772,1.064950 340.863586,1.064950 
	C340.863586,103.333214 340.863586,205.666580 340.863586,308.000000 
	C313.247162,308.000000 285.592255,308.000000 257.122131,307.724731 
	C256.623383,306.954681 256.939819,306.459900 257.570282,305.850098 
	C267.311798,292.348846 276.740356,278.963379 286.166412,265.576111 
	C293.320892,255.415054 300.525452,245.288681 307.605743,235.076202 
	C312.162170,228.504105 316.533875,221.803940 321.287415,214.936584 
	C325.000702,209.377792 319.990021,211.088226 318.230377,211.082764 
	C282.146393,210.970734 246.061920,210.987793 209.977631,211.041275 
	C208.659973,211.043228 207.343246,211.675369 205.656815,211.868774 
	C199.517563,211.797180 193.747589,211.870621 187.989944,211.975189 
	C188.002274,212.006302 188.061707,211.975464 187.906525,211.680481 
	C187.823257,210.511154 187.579498,209.415543 188.014130,208.795410 
	C195.334015,198.351822 202.754120,187.978561 210.119659,177.566818 
	C217.387344,167.293381 224.704788,157.053482 231.840195,146.688568 
	C238.125946,137.557846 244.190475,128.274811 250.520203,118.992096 
	C250.897766,118.779991 251.024567,118.581612 251.322388,118.139572 
	C252.058884,117.288551 252.541122,116.627968 253.060257,115.810318 
	C253.097168,115.653244 253.069611,115.331718 253.344635,115.105766 
	C253.779800,114.280403 253.939941,113.680992 254.085968,113.091270 
	C254.071869,113.100960 254.114395,113.100563 254.453491,113.246101 
	C255.219864,112.606926 255.647125,111.822205 256.040710,111.021187 
	C256.007019,111.004890 256.055878,111.061546 256.367249,110.943481 
	C257.142242,109.896942 257.605835,108.968475 258.046204,108.015533 
	C258.022980,107.991058 258.047089,108.053474 258.339264,107.959885 
	C259.093933,107.234055 259.556427,106.601814 260.053528,105.801735 
	C260.088135,105.633888 260.065308,105.291908 260.315521,105.110283 
	C261.032623,104.286911 261.499512,103.645157 262.086975,102.763397 
	C262.521179,102.090775 262.834808,101.658157 263.421936,101.010803 
	C285.462952,69.616119 307.230438,38.436176 329.291138,7.095973 
	C329.716370,6.528600 329.848358,6.121487 330.087769,5.488399 
	C330.124115,4.944745 330.053040,4.627065 329.921417,3.840936 
	C329.052521,3.247607 328.244263,3.013524 327.435913,3.013349 
	C244.740677,2.995435 162.045456,2.990944 79.350250,3.039640 
	C78.265930,3.040278 77.182030,3.729969 75.891563,4.371686 
	C70.408104,12.096931 65.116547,19.538334 59.856731,27.002113 
	C45.953873,46.730560 32.001961,66.425011 18.219339,86.237183 
	C15.199013,90.578827 12.801094,95.353470 10.226871,100.363579 
	C12.327099,100.866524 14.316979,100.993431 16.306894,100.993996 
	C57.559437,101.005661 98.811996,100.991318 140.064468,101.048546 
	C141.613419,101.050690 143.161469,101.720383 144.427155,102.167160 
	C143.782959,103.168060 143.421524,104.080795 142.863541,105.275116 
	C140.422562,108.955368 138.178131,112.354034 135.620483,115.912491 
	C132.558685,120.128281 129.883987,124.236740 127.047752,128.230484 
	C118.334290,140.500015 109.473099,152.665375 100.830849,164.984543 
	C91.435852,178.376709 82.306915,191.955536 72.906578,205.343872 
	C62.369850,220.350708 51.616943,235.205551 41.035923,250.181519 
	C30.745722,264.745850 20.509968,279.349243 10.348821,294.003784 
	C7.675312,297.859528 5.366473,301.968140 3.056305,306.361115 
	C3.148293,307.174408 3.074145,307.587189 2.999999,308.000000 
z"/>
<path fill="#2B2845" opacity="1.000000" stroke="none" 
	d="
M140.000000,308.000000 
	C133.312347,308.000000 126.624710,308.000000 119.100037,307.781311 
	C118.493439,307.043488 118.723877,306.524323 119.205360,305.784180 
	C121.997421,301.876892 124.511513,298.171722 127.083778,294.507385 
	C144.148102,270.198456 161.070099,245.786392 178.466919,221.717606 
	C181.032669,218.167831 181.907501,212.239044 188.061707,211.975464 
	C188.061707,211.975464 188.002274,212.006302 188.331543,212.213654 
	C194.182587,212.753494 199.704391,213.085983 206.330002,213.484955 
	C200.994904,220.954117 196.248749,227.498169 191.607269,234.115616 
	C177.480972,254.255768 163.347794,274.391510 149.338486,294.612915 
	C146.911331,298.116333 145.075363,302.029327 142.645020,305.817841 
	C141.888397,305.921356 141.453079,305.960175 140.771423,306.173004 
	C140.350067,306.897980 140.175034,307.449005 140.000000,308.000000 
z"/>
<path fill="#AAA6BF" opacity="1.000000" stroke="none" 
	d="
M141.017776,305.999023 
	C141.453079,305.960175 141.888397,305.921356 143.108978,305.898651 
	C181.681595,305.931549 219.468918,305.948334 257.256256,305.965118 
	C256.939819,306.459900 256.623383,306.954681 256.653473,307.724731 
	C218.645767,308.000000 180.291550,308.000000 141.820068,307.763977 
	C141.474472,307.018311 141.246124,306.508667 141.017776,305.999023 
z"/>
<path fill="#B0ADC8" opacity="1.000000" stroke="none" 
	d="
M118.954308,306.005157 
	C118.723877,306.524323 118.493439,307.043488 118.631500,307.781311 
	C80.645775,308.000000 42.291542,308.000000 3.468656,308.000000 
	C3.074145,307.587189 3.148293,307.174408 3.532408,306.339478 
	C42.213020,305.946655 80.583664,305.975922 118.954308,306.005157 
z"/>
<path fill="#000000" opacity="1.000000" stroke="none" 
	d="
M140.771423,306.173004 
	C141.246124,306.508667 141.474472,307.018311 141.351410,307.763977 
	C141.000000,308.000000 140.500000,308.000000 140.250000,308.000000 
	C140.175034,307.449005 140.350067,306.897980 140.771423,306.173004 
z"/>
<path fill="#56508B" opacity="1.000000" stroke="none" 
	d="
M10.116540,99.928703 
	C12.801094,95.353470 15.199013,90.578827 18.219339,86.237183 
	C32.001961,66.425011 45.953873,46.730560 59.856731,27.002113 
	C65.116547,19.538334 70.408104,12.096931 76.349480,4.415216 
	C90.155060,4.190804 103.296364,4.195775 116.437660,4.202323 
	C187.619110,4.237794 258.800537,4.273656 329.981995,4.309383 
	C330.053040,4.627065 330.124115,4.944745 329.798035,5.261163 
	C329.266602,5.925349 329.132294,6.590797 328.997925,7.256239 
	C307.230438,38.436176 285.462952,69.616119 263.018341,100.857910 
	C260.236664,100.604759 258.132507,100.018631 256.027466,100.015244 
	C221.808914,99.960220 187.590210,99.959099 153.371704,100.026138 
	C151.099457,100.030586 148.828506,100.680008 146.253937,100.672691 
	C145.146500,100.149300 144.342056,99.836647 143.537689,99.836899 
	C99.063972,99.850929 54.590256,99.891136 10.116540,99.928703 
z"/>
<path fill="#484475" opacity="1.000000" stroke="none" 
	d="
M119.205360,305.784180 
	C80.583664,305.975922 42.213020,305.946655 3.366273,305.939026 
	C5.366473,301.968140 7.675312,297.859528 10.348821,294.003784 
	C20.509968,279.349243 30.745722,264.745850 41.035923,250.181519 
	C51.616943,235.205551 62.369850,220.350708 72.906578,205.343872 
	C82.306915,191.955536 91.435852,178.376709 100.830849,164.984543 
	C109.473099,152.665375 118.334290,140.500015 127.047752,128.230484 
	C129.883987,124.236740 132.558685,120.128281 135.710083,116.293823 
	C137.509125,117.230232 138.858139,118.400658 140.312866,118.551521 
	C142.413223,118.769348 144.590027,118.071198 146.734634,118.068260 
	C175.187775,118.029221 203.641190,117.985756 232.093994,118.090469 
	C238.181335,118.112869 244.266525,118.720840 250.352692,119.059036 
	C244.190475,128.274811 238.125946,137.557846 231.840195,146.688568 
	C224.704788,157.053482 217.387344,167.293381 210.119659,177.566818 
	C202.754120,187.978561 195.334015,198.351822 188.014130,208.795410 
	C187.579498,209.415543 187.823257,210.511154 187.906525,211.680481 
	C181.907501,212.239044 181.032669,218.167831 178.466919,221.717606 
	C161.070099,245.786392 144.148102,270.198456 127.083778,294.507385 
	C124.511513,298.171722 121.997421,301.876892 119.205360,305.784180 
z"/>
<path fill="#3D3861" opacity="1.000000" stroke="none" 
	d="
M257.570282,305.850098 
	C219.468918,305.948334 181.681595,305.931549 143.430298,305.833954 
	C145.075363,302.029327 146.911331,298.116333 149.338486,294.612915 
	C163.347794,274.391510 177.480972,254.255768 191.607269,234.115616 
	C196.248749,227.498169 200.994904,220.954117 206.330002,213.484955 
	C199.704391,213.085983 194.182587,212.753494 188.319214,212.182526 
	C193.747589,211.870621 199.517563,211.797180 206.123428,211.885330 
	C210.454636,212.079330 213.949966,212.138992 217.445282,212.139877 
	C250.406052,212.148270 283.366821,212.135178 316.327545,212.175140 
	C318.393555,212.177658 321.414398,211.094849 320.988403,215.161194 
	C316.533875,221.803940 312.162170,228.504105 307.605743,235.076202 
	C300.525452,245.288681 293.320892,255.415054 286.166412,265.576111 
	C276.740356,278.963379 267.311798,292.348846 257.570282,305.850098 
z"/>
<path fill="#343054" opacity="1.000000" stroke="none" 
	d="
M250.520203,118.992096 
	C244.266525,118.720840 238.181335,118.112869 232.093994,118.090469 
	C203.641190,117.985756 175.187775,118.029221 146.734634,118.068260 
	C144.590027,118.071198 142.413223,118.769348 140.312866,118.551521 
	C138.858139,118.400658 137.509125,117.230232 136.023285,116.134041 
	C138.178131,112.354034 140.422562,108.955368 143.187500,105.261887 
	C144.498840,104.064133 145.289688,103.161209 146.199417,101.950981 
	C146.397827,101.438934 146.477386,101.234192 146.556946,101.029442 
	C148.828506,100.680008 151.099457,100.030586 153.371704,100.026138 
	C187.590210,99.959099 221.808914,99.960220 256.027466,100.015244 
	C258.132507,100.018631 260.236664,100.604759 262.744812,101.072647 
	C262.834808,101.658157 262.521179,102.090775 261.755920,102.825462 
	C260.891296,103.848991 260.478302,104.570450 260.065308,105.291901 
	C260.065308,105.291908 260.088135,105.633888 259.725494,105.837448 
	C258.924255,106.711823 258.485657,107.382645 258.047089,108.053467 
	C258.047089,108.053474 258.022980,107.991058 257.705322,108.080460 
	C256.943756,109.133766 256.499817,110.097656 256.055878,111.061546 
	C256.055878,111.061546 256.007019,111.004890 255.725632,111.078102 
	C255.000961,111.801064 254.557678,112.450813 254.114380,113.100555 
	C254.114395,113.100563 254.071869,113.100960 253.820328,113.285294 
	C253.402390,114.090324 253.235992,114.711021 253.069611,115.331718 
	C253.069611,115.331718 253.097168,115.653244 252.716003,115.866913 
	C251.912598,116.830391 251.490356,117.580200 251.068115,118.330002 
	C251.024567,118.581612 250.897766,118.779991 250.520203,118.992096 
z"/>
<path fill="#EBEBFF" opacity="1.000000" stroke="none" 
	d="
M329.921417,3.840935 
	C258.800537,4.273656 187.619110,4.237794 116.437660,4.202323 
	C103.296364,4.195775 90.155060,4.190804 76.555847,4.141574 
	C77.182030,3.729969 78.265930,3.040278 79.350250,3.039640 
	C162.045456,2.990944 244.740677,2.995435 327.435913,3.013349 
	C328.244263,3.013524 329.052521,3.247607 329.921417,3.840935 
z"/>
<path fill="#E9E9FF" opacity="1.000000" stroke="none" 
	d="
M146.253937,100.672691 
	C146.477386,101.234192 146.397827,101.438934 145.853683,101.930756 
	C145.162704,102.171570 144.936325,102.125290 144.709930,102.079010 
	C143.161469,101.720383 141.613419,101.050690 140.064468,101.048546 
	C98.811996,100.991318 57.559437,101.005661 16.306894,100.993996 
	C14.316979,100.993431 12.327099,100.866524 10.226871,100.363579 
	C54.590256,99.891136 99.063972,99.850929 143.537689,99.836899 
	C144.342056,99.836647 145.146500,100.149300 146.253937,100.672691 
z"/>
<path fill="#B1B1C2" opacity="1.000000" stroke="none" 
	d="
M321.287445,214.936584 
	C321.414398,211.094849 318.393555,212.177658 316.327545,212.175140 
	C283.366821,212.135178 250.406052,212.148270 217.445282,212.139877 
	C213.949966,212.138992 210.454636,212.079330 206.492706,212.030380 
	C207.343246,211.675369 208.659973,211.043228 209.977631,211.041275 
	C246.061920,210.987793 282.146393,210.970734 318.230377,211.082764 
	C319.990021,211.088226 325.000702,209.377792 321.287445,214.936584 
z"/>
<path fill="#56508B" opacity="1.000000" stroke="none" 
	d="
M144.427155,102.167160 
	C144.936325,102.125290 145.162704,102.171570 145.734818,102.238068 
	C145.289688,103.161209 144.498840,104.064133 143.384033,104.980301 
	C143.421524,104.080795 143.782959,103.168060 144.427155,102.167160 
z"/>
<path fill="#484475" opacity="1.000000" stroke="none" 
	d="
M256.367249,110.943481 
	C256.499817,110.097656 256.943756,109.133766 257.728577,108.104935 
	C257.605835,108.968475 257.142242,109.896942 256.367249,110.943481 
z"/>
<path fill="#484475" opacity="1.000000" stroke="none" 
	d="
M254.453491,113.246094 
	C254.557678,112.450813 255.000961,111.801064 255.759323,111.094398 
	C255.647125,111.822205 255.219864,112.606926 254.453491,113.246094 
z"/>
<path fill="#484475" opacity="1.000000" stroke="none" 
	d="
M251.322388,118.139565 
	C251.490356,117.580200 251.912598,116.830391 252.679092,116.023987 
	C252.541122,116.627968 252.058884,117.288551 251.322388,118.139565 
z"/>
<path fill="#484475" opacity="1.000000" stroke="none" 
	d="
M258.339264,107.959885 
	C258.485657,107.382645 258.924255,106.711823 259.690887,106.005295 
	C259.556427,106.601814 259.093933,107.234055 258.339264,107.959885 
z"/>
<path fill="#484475" opacity="1.000000" stroke="none" 
	d="
M260.315521,105.110275 
	C260.478302,104.570450 260.891296,103.848991 261.635345,103.065475 
	C261.499512,103.645157 261.032623,104.286911 260.315521,105.110275 
z"/>
<path fill="#484475" opacity="1.000000" stroke="none" 
	d="
M253.344635,115.105766 
	C253.235992,114.711021 253.402390,114.090324 253.834442,113.275604 
	C253.939941,113.680992 253.779800,114.280403 253.344635,115.105766 
z"/>
<path fill="#EBEBFF" opacity="1.000000" stroke="none" 
	d="
M329.291168,7.095980 
	C329.132294,6.590797 329.266602,5.925349 329.690613,5.487137 
	C329.848358,6.121487 329.716370,6.528600 329.291168,7.095980 
z"/>
</svg>